<svg version="1.1" preserveAspectRatio="xMidYMid meet" xmlns="http://www.w3.org/2000/svg" xmlns:xlink="http://www.w3.org/1999/xlink" viewBox="-272.059 0 1544.118 1000"><defs><g transform="matrix(10.058, 0, 0, 10.058, 258.599, 143.023)" fill="#fff" stroke="none" stroke-width="1" id="def-541edd8d-0707-4d25-97e2-c15e75aa76f0"><g transform="translate(0, 0)"><g></g><g transform="translate(0,-1004.3622)"><path style="color:#000000;font-style:normal;font-variant:normal;font-weight:normal;font-stretch:normal;font-size:medium;line-height:normal;font-family:sans-serif;text-indent:0;text-align:start;text-decoration:none;text-decoration-line:none;text-decoration-style:solid;text-decoration-color:#000000;letter-spacing:normal;word-spacing:normal;text-transform:none;direction:ltr;block-progression:tb;writing-mode:lr-tb;baseline-shift:baseline;text-anchor:start;white-space:normal;clip-rule:nonzero;display:inline;overflow:visible;visibility:visible;opacity:1;isolation:auto;mix-blend-mode:normal;color-interpolation:sRGB;color-interpolation-filters:linearRGB;solid-color:#000000;solid-opacity:1;fill:#fff;fill-opacity:1;fill-rule:nonzero;stroke:none;stroke-width:1.99999976;stroke-linecap:round;stroke-linejoin:round;stroke-miterlimit:4;stroke-dasharray:none;stroke-dashoffset:0;stroke-opacity:1;color-rendering:auto;image-rendering:auto;shape-rendering:auto;text-rendering:auto;enable-background:accumulate" d=" m17,1018.361 a1,1 0 0 0 -1,1 l0,5 a1,1 0 0 0 1,1 l9,0 0,5 -1,0 a1,1 0 0 0 -1,1 l0,18 a1,1 0 0 0 1,1 l20,0 a1,1 0 0 0 1,-1 l0,-30 a1,1 0 0 0 -1,-1 l-28,0 z m1,2 26,0 0,28 -18,0 0,-16 1,0 a1,1 0 0 0 1,-1 l0,-7 a1,1 0 0 0 -1,-1 l-9,0 0,-3 z"></path><path style="color:#000000;font-style:normal;font-variant:normal;font-weight:normal;font-stretch:normal;font-size:medium;line-height:normal;font-family:sans-serif;text-indent:0;text-align:start;text-decoration:none;text-decoration-line:none;text-decoration-style:solid;text-decoration-color:#000000;letter-spacing:normal;word-spacing:normal;text-transform:none;direction:ltr;block-progression:tb;writing-mode:lr-tb;baseline-shift:baseline;text-anchor:start;white-space:normal;clip-rule:nonzero;display:inline;overflow:visible;visibility:visible;opacity:1;isolation:auto;mix-blend-mode:normal;color-interpolation:sRGB;color-interpolation-filters:linearRGB;solid-color:#000000;solid-opacity:1;fill:#fff;fill-opacity:1;fill-rule:nonzero;stroke:none;stroke-width:1.99999988;stroke-linecap:round;stroke-linejoin:round;stroke-miterlimit:4;stroke-dasharray:none;stroke-dashoffset:0;stroke-opacity:1;color-rendering:auto;image-rendering:auto;shape-rendering:auto;text-rendering:auto;enable-background:accumulate" d=" m3,1030.361 a1,1 0 0 0 -1,1 l0,18 a1,1 0 0 0 1,1 l22,0 a1,1 0 0 0 1,-1 l0,-18 a1,1 0 0 0 -1,-1 l-22,0 z m1,2 20,0 0,16 -20,0 0,-16 z"></path><path style="color:#000000;font-style:normal;font-variant:normal;font-weight:normal;font-stretch:normal;font-size:medium;line-height:normal;font-family:sans-serif;text-indent:0;text-align:start;text-decoration:none;text-decoration-line:none;text-decoration-style:solid;text-decoration-color:#000000;letter-spacing:normal;word-spacing:normal;text-transform:none;direction:ltr;block-progression:tb;writing-mode:lr-tb;baseline-shift:baseline;text-anchor:start;white-space:normal;clip-rule:nonzero;display:inline;overflow:visible;visibility:visible;opacity:1;isolation:auto;mix-blend-mode:normal;color-interpolation:sRGB;color-interpolation-filters:linearRGB;solid-color:#000000;solid-opacity:1;fill:#fff;fill-opacity:1;fill-rule:nonzero;stroke:none;stroke-width:2;stroke-linecap:round;stroke-linejoin:round;stroke-miterlimit:4;stroke-dasharray:none;stroke-dashoffset:0;stroke-opacity:1;color-rendering:auto;image-rendering:auto;shape-rendering:auto;text-rendering:auto;enable-background:accumulate" d=" m1,1023.361 a1,1 0 0 0 -1,1 l0,7 a1,1 0 0 0 1,1 l26,0 a1,1 0 0 0 1,-1 l0,-7 a1,1 0 0 0 -1,-1 l-26,0 z m1,2 24,0 0,5 -24,0 0,-5 z"></path><path style="color:#000000;font-style:normal;font-variant:normal;font-weight:normal;font-stretch:normal;font-size:medium;line-height:normal;font-family:sans-serif;text-indent:0;text-align:start;text-decoration:none;text-decoration-line:none;text-decoration-style:solid;text-decoration-color:#000000;letter-spacing:normal;word-spacing:normal;text-transform:none;direction:ltr;block-progression:tb;writing-mode:lr-tb;baseline-shift:baseline;text-anchor:start;white-space:normal;clip-rule:nonzero;display:inline;overflow:visible;visibility:visible;opacity:1;isolation:auto;mix-blend-mode:normal;color-interpolation:sRGB;color-interpolation-filters:linearRGB;solid-color:#000000;solid-opacity:1;fill:#fff;fill-opacity:1;fill-rule:nonzero;stroke:none;stroke-width:2;stroke-linecap:round;stroke-linejoin:round;stroke-miterlimit:4;stroke-dasharray:none;stroke-dashoffset:0;stroke-opacity:1;color-rendering:auto;image-rendering:auto;shape-rendering:auto;text-rendering:auto;enable-background:accumulate" d=" m15,1011.361 a1,1 0 0 0 -1,1 l0,7 a1,1 0 0 0 1,1 l32,0 a1,1 0 0 0 1,-1 l0,-7 a1,1 0 0 0 -1,-1 l-32,0 z m1,2 30,0 0,5 -30,0 0,-5 z"></path><path style="color:#000000;font-style:normal;font-variant:normal;font-weight:normal;font-stretch:normal;font-size:medium;line-height:normal;font-family:sans-serif;text-indent:0;text-align:start;text-decoration:none;text-decoration-line:none;text-decoration-style:solid;text-decoration-color:#000000;letter-spacing:normal;word-spacing:normal;text-transform:none;direction:ltr;block-progression:tb;writing-mode:lr-tb;baseline-shift:baseline;text-anchor:start;white-space:normal;clip-rule:nonzero;display:inline;overflow:visible;visibility:visible;opacity:1;isolation:auto;mix-blend-mode:normal;color-interpolation:sRGB;color-interpolation-filters:linearRGB;solid-color:#000000;solid-opacity:1;fill:#fff;fill-opacity:1;fill-rule:evenodd;stroke:none;stroke-width:2;stroke-linecap:round;stroke-linejoin:round;stroke-miterlimit:4;stroke-dasharray:none;stroke-dashoffset:0;stroke-opacity:1;color-rendering:auto;image-rendering:auto;shape-rendering:auto;text-rendering:auto;enable-background:accumulate" d=" M13.984,1023.361 A1,1 0 0 0 13,1024.377 l0,24.971 a1,1 0 1 0 2,0 l0,-24.971 a1,1 0 0 0 -1.016,-1.016 z"></path><path style="color:#000000;font-style:normal;font-variant:normal;font-weight:normal;font-stretch:normal;font-size:medium;line-height:normal;font-family:sans-serif;text-indent:0;text-align:start;text-decoration:none;text-decoration-line:none;text-decoration-style:solid;text-decoration-color:#000000;letter-spacing:normal;word-spacing:normal;text-transform:none;direction:ltr;block-progression:tb;writing-mode:lr-tb;baseline-shift:baseline;text-anchor:start;white-space:normal;clip-rule:nonzero;display:inline;overflow:visible;visibility:visible;opacity:1;isolation:auto;mix-blend-mode:normal;color-interpolation:sRGB;color-interpolation-filters:linearRGB;solid-color:#000000;solid-opacity:1;fill:#fff;fill-opacity:1;fill-rule:evenodd;stroke:none;stroke-width:1.99999988;stroke-linecap:round;stroke-linejoin:round;stroke-miterlimit:4;stroke-dasharray:none;stroke-dashoffset:0;stroke-opacity:1;color-rendering:auto;image-rendering:auto;shape-rendering:auto;text-rendering:auto;enable-background:accumulate" d=" M30.984,1010.363 A1,1 0 0 0 30,1011.377 l0,37.971 a1,1 0 1 0 2,0 l0,-37.971 a1,1 0 0 0 -1.016,-1.014 z"></path><path style="color:#000000;font-style:normal;font-variant:normal;font-weight:normal;font-stretch:normal;font-size:medium;line-height:normal;font-family:sans-serif;text-indent:0;text-align:start;text-decoration:none;text-decoration-line:none;text-decoration-style:solid;text-decoration-color:#000000;letter-spacing:normal;word-spacing:normal;text-transform:none;direction:ltr;block-progression:tb;writing-mode:lr-tb;baseline-shift:baseline;text-anchor:start;white-space:normal;clip-rule:nonzero;display:inline;overflow:visible;visibility:visible;opacity:1;isolation:auto;mix-blend-mode:normal;color-interpolation:sRGB;color-interpolation-filters:linearRGB;solid-color:#000000;solid-opacity:1;fill:#fff;fill-opacity:1;fill-rule:evenodd;stroke:none;stroke-width:2;stroke-linecap:round;stroke-linejoin:round;stroke-miterlimit:4;stroke-dasharray:none;stroke-dashoffset:0;stroke-opacity:1;color-rendering:auto;image-rendering:auto;shape-rendering:auto;text-rendering:auto;enable-background:accumulate" d=" m25.002,1007.361 a1,1 0 0 0 -0.545,1.84 l5.988,3.992 a1,1 0 0 0 1.109,0 l5.988,-3.992 a1,1 0 1 0 -1.109,-1.664 L31,1011.16 l-5.434,-3.623 a1,1 0 0 0 -0.564,-0.176 z"></path><path style="color:#000000;font-style:normal;font-variant:normal;font-weight:normal;font-stretch:normal;font-size:medium;line-height:normal;font-family:sans-serif;text-indent:0;text-align:start;text-decoration:none;text-decoration-line:none;text-decoration-style:solid;text-decoration-color:#000000;letter-spacing:normal;word-spacing:normal;text-transform:none;direction:ltr;block-progression:tb;writing-mode:lr-tb;baseline-shift:baseline;text-anchor:start;white-space:normal;clip-rule:nonzero;display:inline;overflow:visible;visibility:visible;opacity:1;isolation:auto;mix-blend-mode:normal;color-interpolation:sRGB;color-interpolation-filters:linearRGB;solid-color:#000000;solid-opacity:1;fill:#fff;fill-opacity:1;fill-rule:evenodd;stroke:none;stroke-width:2;stroke-linecap:round;stroke-linejoin:round;stroke-miterlimit:4;stroke-dasharray:none;stroke-dashoffset:0;stroke-opacity:1;color-rendering:auto;image-rendering:auto;shape-rendering:auto;text-rendering:auto;enable-background:accumulate" d=" m3.014,1038.361 a1,1 0 1 0 0,2 l41.973,0 a1,1 0 1 0 0,-2 l-41.973,0 z"></path></g></g></g><path d="M271.654,770.142 L280.017,770.142 L280.017,835.256 L271.654,835.256 L271.654,854.969 L319.742,854.969 L319.742,835.256 L310.632,835.256 L310.632,812.108 L321.982,812.108 C343.338,812.108,361.259,802.251,361.259,782.538 C361.259,765.513,354.688,750.578,320.041,750.578 L271.654,750.578 Z M318.099,769.993 C326.761,769.993,331.988,774.772,331.988,783.583 C331.988,791.498,326.015,795.979,317.353,795.979 L310.632,795.979 L310.632,769.993 Z M373.207,800.011 L379.479,800.011 L379.479,820.62 C379.479,845.411,386.947,857.06,409.497,857.06 C422.191,857.06,427.418,849.294,430.704,845.561 L434.736,854.969 L462.962,854.969 L462.962,835.107 L455.644,835.107 L455.644,780.298 L416.964,780.298 L416.964,800.011 L426.821,800.011 L426.821,823.756 C426.821,830.477,422.639,835.107,417.412,835.107 C411.289,835.107,409.348,829.133,409.348,816.289 L409.348,780.298 L373.207,780.298 Z M518.219,854.969 L518.219,835.405 L512.693,835.405 L512.693,822.86 L517.92,819.276 L529.27,835.405 L522.998,835.405 L522.998,854.969 L567.204,854.969 L567.204,835.405 L559.736,835.405 L539.575,806.582 L549.73,800.16 L561.23,800.16 L561.23,780.447 L519.414,780.447 L519.414,800.16 L530.167,800.16 L512.843,810.465 L512.843,742.962 L478.344,742.962 L478.344,762.526 L484.468,762.526 L484.468,835.555 L478.344,835.555 L478.344,854.969 Z M623.357,854.969 L623.357,835.405 L617.831,835.405 L617.831,822.86 L623.058,819.276 L634.408,835.405 L628.136,835.405 L628.136,854.969 L672.341,854.969 L672.341,835.405 L664.874,835.405 L644.713,806.582 L654.868,800.16 L666.367,800.16 L666.367,780.447 L624.551,780.447 L624.551,800.16 L635.304,800.16 L617.98,810.465 L617.98,742.962 L583.482,742.962 L583.482,762.526 L589.605,762.526 L589.605,835.555 L583.482,835.555 L583.482,854.969 Z M728.494,835.405 L721.326,835.405 L721.326,780.298 L686.678,780.298 L686.678,799.712 L692.95,799.712 L692.95,835.405 L686.678,835.405 L686.678,854.969 L728.494,854.969 Z M690.86,758.494 C690.86,765.662,697.58,773.577,706.989,773.577 C717.592,773.577,723.416,766.707,723.416,758.494 C723.416,751.624,717.293,743.261,706.989,743.261 C696.535,743.261,690.86,751.624,690.86,758.494 Z" id="def-3de3acd9-2d40-40b3-8f76-95880918fe98"></path><linearGradient id="gradient-3dc9358f-2d21-4f3c-87b7-ac6acd1e7b98" gradientUnits="objectBoundingBox" x1="0.146" y1="0.146" x2="0.854" y2="0.854"><stop offset="0" stop-color="#f87beb" stop-opacity="1"></stop><stop offset="0.25" stop-color="#ea71e7" stop-opacity="1"></stop><stop offset="0.5" stop-color="#db67e2" stop-opacity="1"></stop><stop offset="0.75" stop-color="#cb5ddd" stop-opacity="1"></stop><stop offset="1" stop-color="#bc55da" stop-opacity="1"></stop></linearGradient><mask id="mask-a547f8a4-8698-4bb8-9c32-f31fa051599c" x="234.459" y="118.883" width="531.082" height="531.082" maskUnits="userSpaceOnUse" stroke-width="0"><rect x="258.599" y="143.023" width="482.802" height="482.802" fill="#000"></rect><use xlink:href="#def-541edd8d-0707-4d25-97e2-c15e75aa76f0" fill="#fff" stroke="#fff"></use></mask><mask id="mask-1c65945f-7d42-4d12-b10a-0bc273cba487" x="253.215" y="724.671" width="493.57" height="150.898" maskUnits="userSpaceOnUse" stroke-width="0"><rect x="260.074" y="731.53" width="479.852" height="137.18" fill="#000"></rect><use xlink:href="#def-3de3acd9-2d40-40b3-8f76-95880918fe98" fill="#fff" stroke="#fff"></use></mask></defs><g mask="url(#mask-a547f8a4-8698-4bb8-9c32-f31fa051599c)"><rect x="258.599" y="143.023" width="482.802" height="482.802" fill="url(#gradient-3dc9358f-2d21-4f3c-87b7-ac6acd1e7b98)"></rect></g><g mask="url(#mask-1c65945f-7d42-4d12-b10a-0bc273cba487)"><rect x="260.074" y="731.53" width="479.852" height="137.18" fill="#2d59c9"></rect></g></svg>